# Blender 4.1.1
# www.blender.org
mtllib komnata.mtl
o Cube
v -11.727722 -3.670695 10.488077
v -11.727722 3.670695 10.488077
v -11.727722 -3.670695 -10.488077
v -11.727722 3.670695 -10.488077
v 11.727722 -3.670695 10.488077
v 11.727722 3.670695 10.488077
v 11.727722 -3.670695 -10.488077
v 11.727722 3.670695 -10.488077
v -11.727722 3.670695 -9.876003
v -11.727722 -3.670695 -9.876003
v 11.727722 -3.670695 -9.876003
v 11.727722 3.670695 -9.876003
v 11.094218 3.670695 -10.488077
v 11.094218 -3.670695 -10.488077
v 11.094218 -3.670695 10.488077
v 11.094218 3.670695 10.488077
v -10.859317 -3.670695 -10.488077
v -10.859317 -3.670695 10.488077
v -10.859317 3.670695 10.488077
v -10.859317 3.670695 -10.488077
v -11.727722 -3.670695 9.763209
v -11.727722 3.670695 9.763209
v 11.727722 3.670695 9.763209
v 11.727722 -3.670695 9.763209
vn -0.0000 -1.0000 -0.0000
vn -1.0000 -0.0000 -0.0000
vn -0.0000 1.0000 -0.0000
vn -0.0000 -0.0000 -1.0000
vn 1.0000 -0.0000 -0.0000
vn -0.0000 -0.0000 1.0000
vt 0.000000 0.000000
vt 0.625000 0.500000
vt 0.375000 0.500000
vt 0.125000 0.750000
vt 0.375000 0.750000
vt 0.125000 0.500000
vt 0.375000 0.250000
vt 0.625000 0.250000
vt 0.625000 0.750000
vt 0.375000 0.000000
vt 0.625000 0.000000
vt 0.375000 1.000000
vt 0.625000 1.000000
s 0
f 2/1/1 4/1/1 20/1/1 19/1/1
f 8/2/2 7/3/2 11/3/2 12/2/2
f 8/1/1 6/1/1 16/1/1 13/1/1
f 1/4/3 5/5/3 24/5/3 21/4/3
f 3/6/1 7/3/1 5/5/1 1/4/1
f 10/7/4 9/8/4 12/2/4 11/3/4
f 7/3/3 3/6/3 10/6/3 11/3/3
f 4/1/1 8/1/1 12/1/1 9/1/1
f 3/7/5 4/8/5 9/8/5 10/7/5
f 14/3/5 13/2/5 16/9/5 15/5/5
f 7/3/6 8/2/6 13/2/6 14/3/6
f 6/9/4 5/5/4 15/5/4 16/9/4
f 5/5/3 7/3/3 14/3/3 15/5/3
f 18/10/2 19/11/2 20/8/2 17/7/2
f 3/6/3 1/4/3 18/4/3 17/6/3
f 4/8/6 3/7/6 17/7/6 20/8/6
f 1/12/4 2/13/4 19/13/4 18/12/4
f 24/5/6 23/9/6 22/13/6 21/12/6
f 6/1/1 2/1/1 22/1/1 23/1/1
f 5/5/2 6/9/2 23/9/2 24/5/2
f 2/13/5 1/12/5 21/12/5 22/13/5
